<svg width="168" height="168" viewBox="0 0 168 168" fill="none" xmlns="http://www.w3.org/2000/svg">
<path d="M91.1744 48.6289C90.496 48.6289 89.8176 48.6288 89.1392 48.968L80.6592 43.5409C80.6592 40.8273 78.2848 38.792 75.9104 38.792C73.1968 38.792 71.1616 40.8273 71.1616 43.5409C71.1616 44.5585 71.5008 45.2367 71.84 45.9151L56.576 65.5889C55.8976 64.9105 54.5408 64.5711 53.5232 64.5711C50.8096 64.5711 48.7744 66.6064 48.7744 69.32V69.6591L34.528 73.3904C33.5104 72.0336 32.1536 71.016 30.4576 71.016C27.744 71.016 25.7087 73.0513 25.7087 75.7649C25.7087 78.4785 27.744 80.5136 30.4576 80.5136C32.832 80.5136 34.8672 78.8175 35.2064 76.4431L50.1312 72.712C51.1488 73.7296 52.1664 74.0689 53.5232 74.0689C56.2368 74.0689 58.272 72.0336 58.272 69.32V68.9809L74.2144 48.2896C74.8928 48.6288 75.232 48.6289 75.9104 48.6289C77.2672 48.6289 78.624 47.9505 79.6416 46.9329L86.7647 51.6816C86.4255 52.36 86.4256 53.0385 86.4256 53.7169C86.4256 56.4305 88.4608 58.4656 91.1744 58.4656C93.888 58.4656 95.9232 56.4305 95.9232 53.7169C95.9232 51.0033 93.5488 48.6289 91.1744 48.6289Z" fill="#00FF66"/>
<path d="M60.6462 8.60312C32.4926 8.60312 9.427 31.6688 9.427 59.8224C9.427 73.3904 14.8542 86.2801 24.3518 96.1169C33.8494 105.614 46.739 111.042 60.6462 111.042C88.7998 111.042 111.865 87.976 111.865 59.8224C111.865 31.6688 88.7998 8.60312 60.6462 8.60312ZM60.6462 107.65C47.7566 107.65 35.8846 102.562 26.7262 93.7424C17.5678 84.584 12.819 72.712 12.819 59.8224C12.819 33.3648 34.1886 11.9951 60.6462 11.9951C87.1038 11.9951 108.473 33.3648 108.473 59.8224C108.473 86.28 86.7646 107.65 60.6462 107.65Z" fill="#00FF66"/>
<path d="M106.778 97.4736C115.258 86.9584 120.006 73.7296 120.006 59.8224C120.006 26.92 93.2095 0.123123 60.3071 0.123123C27.4047 0.123123 0.60791 26.92 0.60791 59.8224C0.60791 92.7248 27.4047 119.522 60.3071 119.522C73.8751 119.522 87.104 114.773 97.9584 106.293L159.014 167.349L167.834 158.53L106.778 97.4736ZM98.2976 101.544L96.9407 102.562C86.7647 111.381 73.8751 116.13 60.3071 116.13C29.4399 116.13 3.99991 91.0288 3.99991 59.8224C3.99991 28.9552 29.1007 3.51512 60.3071 3.51512C91.1743 3.51512 116.614 28.616 116.614 59.8224C116.614 73.0512 111.866 86.28 103.046 96.456L102.029 97.8129L162.746 158.53L158.675 162.6L98.2976 101.544Z" fill="#00FF66"/>
<path d="M144 37.4545L143.545 70.9091H138.273L137.818 37.4545H144ZM140.909 84.3636C139.788 84.3636 138.826 83.9621 138.023 83.1591C137.22 82.3561 136.818 81.3939 136.818 80.2727C136.818 79.1515 137.22 78.1894 138.023 77.3864C138.826 76.5833 139.788 76.1818 140.909 76.1818C142.03 76.1818 142.992 76.5833 143.795 77.3864C144.598 78.1894 145 79.1515 145 80.2727C145 81.0152 144.811 81.697 144.432 82.3182C144.068 82.9394 143.576 83.4394 142.955 83.8182C142.348 84.1818 141.667 84.3636 140.909 84.3636Z" fill="#00ff66"/>
</svg>
