<svg width="171" height="155" viewBox="0 0 171 155" xmlns="http://www.w3.org/2000/svg">
<path d="M154.146 8.8976V7.2016H16.4303V8.8976C16.4303 13.3072 12.6991 17.0385 8.28951 17.0385H6.59351V69.9536H8.28951C12.6991 69.9536 16.4303 73.6849 16.4303 78.0945V79.7905H154.485V77.7552C154.485 73.3456 158.216 69.9536 162.626 69.9536H164.322V17.7169H162.626C157.877 17.0385 154.146 13.3072 154.146 8.8976ZM160.59 65.8832C155.502 66.5616 151.432 70.632 151.093 76.0592H19.8223C19.1439 70.9712 15.0734 67.24 10.3246 66.5616V20.4305C15.4126 19.7521 19.1439 15.6817 19.8223 10.9329H151.093C151.771 16.0209 155.841 19.7521 160.59 20.4305V65.8832Z" fill="#00FF66"/>
<path d="M85.288 28.232C76.808 28.232 70.024 35.016 70.024 43.496C70.024 51.976 76.808 58.76 85.288 58.76C93.768 58.76 100.552 51.976 100.552 43.496C100.552 35.016 93.768 28.232 85.288 28.232ZM85.288 55.0289C78.8432 55.0289 73.416 49.9409 73.416 43.1569C73.416 36.3729 78.504 31.2849 85.288 31.2849C92.072 31.2849 97.16 36.3729 97.16 43.1569C97.16 49.9409 91.7328 55.0289 85.288 55.0289Z" fill="#00FF66"/>
<path d="M125.653 35.016C120.904 35.016 117.173 38.7472 117.173 43.496C117.173 48.2448 120.904 51.976 125.653 51.976C130.402 51.976 134.133 48.2448 134.133 43.496C134.133 38.7472 130.402 35.016 125.653 35.016ZM125.653 48.2449C122.939 48.2449 120.565 45.8705 120.565 43.1569C120.565 40.4433 122.939 38.0689 125.653 38.0689C128.366 38.0689 130.741 40.4433 130.741 43.1569C130.741 45.8705 128.366 48.2449 125.653 48.2449Z" fill="#00FF66"/>
<path d="M44.9231 35.016C40.1743 35.016 36.4431 38.7472 36.4431 43.496C36.4431 48.2448 40.1743 51.976 44.9231 51.976C49.6719 51.976 53.4031 48.2448 53.4031 43.496C53.4031 38.7472 49.6719 35.016 44.9231 35.016ZM44.9231 48.2449C42.2095 48.2449 39.8351 45.8705 39.8351 43.1569C39.8351 40.4433 42.2095 38.0689 44.9231 38.0689C47.6367 38.0689 50.0111 40.4433 50.0111 43.1569C50.0111 45.8705 47.6367 48.2449 44.9231 48.2449Z" fill="#00FF66"/>
<path d="M132.098 86.2351H170.427V0.756897H0.148682V86.2351H33.7296V107.266H22.1967C21.5183 105.57 19.8223 104.213 17.7871 104.213C15.0735 104.213 13.0383 106.248 13.0383 108.962C13.0383 111.675 15.0735 113.71 17.7871 113.71C19.8223 113.71 21.5183 112.354 22.1967 110.658H37.1216V86.2351H53.7423V125.243H44.5839C43.9055 123.547 42.2095 122.19 40.1743 122.19C37.4607 122.19 35.4256 124.226 35.4256 126.939C35.4256 129.653 37.4607 131.688 40.1743 131.688C42.2095 131.688 43.9055 130.331 44.5839 128.635H57.1343V86.2351H69.6847V145.595C67.9887 146.274 66.6319 147.97 66.6319 150.005C66.6319 152.718 68.6671 154.754 71.3807 154.754C74.0943 154.754 76.1296 152.718 76.1296 150.005C76.1296 147.97 74.7727 146.274 73.0767 145.595V86.2351H89.6976V119.477C88.0016 120.155 86.6447 121.851 86.6447 123.886C86.6447 126.6 88.68 128.635 91.3936 128.635C94.1072 128.635 96.1423 126.6 96.1423 123.886C96.1423 121.851 94.7856 120.155 93.0896 119.477V86.2351H108.693V139.49L117.851 139.829C118.19 141.864 120.226 143.56 122.6 143.56C125.313 143.56 127.349 141.525 127.349 138.811C127.349 136.098 125.313 134.062 122.6 134.062C120.904 134.062 119.208 135.08 118.53 136.437H112.424V86.5745H129.045V105.57H148.379C149.058 107.266 150.753 108.622 152.789 108.622C155.502 108.622 157.538 106.587 157.538 103.874C157.538 101.16 155.502 99.1249 152.789 99.1249C150.753 99.1249 149.058 100.482 148.379 102.178H132.437L132.098 86.2351ZM3.54068 4.1489H167.035V82.8431H3.54068V4.1489Z" fill="#00FF66"/>
</svg>
