<svg width="171" height="172" viewBox="0 0 171 172" fill="none" xmlns="http://www.w3.org/2000/svg">
<path d="M170.789 85.1889C170.789 80.4401 167.057 76.3695 162.648 75.6911L161.63 73.3169L158.578 74.6736L158.917 75.6911C155.185 76.7087 152.472 79.7617 151.794 83.4929H130.763C130.085 72.9777 126.014 62.8016 118.552 55L133.477 40.4145C134.833 41.4321 136.869 41.7711 138.565 41.7711C140.261 41.7711 142.296 41.0929 143.653 40.4145L146.706 39.0576L146.027 37.7009C147.384 36.0049 148.062 33.9697 147.723 31.9345C147.723 29.2209 146.706 26.8465 144.67 25.1505C142.974 23.4545 140.6 22.4369 137.886 22.4369C135.512 22.4369 133.477 23.1151 131.781 24.8111L129.746 24.1329L128.389 27.1856L129.406 27.5249C128.728 28.8817 128.05 30.5776 128.05 32.2736C128.05 34.3088 128.728 36.6832 130.085 38.04L115.16 52.6256C107.019 45.1632 96.5039 40.7536 85.3103 40.7536V20.0625C89.3807 19.7233 92.7727 16.6704 93.7903 12.6H94.1295L95.4863 9.54714L94.1295 8.86891C93.4511 4.12011 89.3807 0.728027 84.6319 0.728027C81.9183 0.728027 79.5439 1.74571 77.8479 3.78091C76.1519 5.47691 75.1343 8.19051 75.1343 10.5649V10.904C75.1343 13.2784 76.1519 15.6529 77.8479 17.3489C79.2047 18.7057 80.5615 19.3839 82.2575 19.7231V40.7536C71.4031 41.432 61.5663 46.1808 54.1039 53.304L39.5183 38.3791C40.5359 36.6831 41.2143 34.9872 41.2143 32.952C41.2143 31.5952 40.875 30.2384 40.1966 28.8816L41.5535 28.2031L40.1966 25.1505L38.1615 26.168C36.4655 24.472 34.0911 23.4545 31.3775 23.4545C28.6639 23.4545 26.2895 24.4719 24.5935 26.5071C22.8975 28.2031 21.8799 30.9167 21.8799 33.2911C21.8799 35.3263 22.5583 37.3616 23.9151 39.0576L22.8975 41.7711L25.9503 43.128L26.6286 41.432C27.9854 42.4496 29.6815 42.7889 31.3775 42.7889C33.4127 42.7889 35.1086 42.1105 36.8046 41.0929L51.3903 56.0176C44.2671 63.8192 40.1967 73.9953 39.8575 85.1889H19.1663C18.4879 80.7793 14.7567 77.3871 10.3471 77.3871L8.65108 76.7089L8.31186 77.3871C3.56306 78.0655 -0.168116 82.1361 0.171084 86.8849C0.171084 91.9729 3.90228 95.7041 8.65108 96.3825L8.99031 97.4L12.0431 96.0431C13.7391 95.7039 15.0958 94.6865 16.4526 93.6689C17.8094 92.3121 18.8271 90.6161 19.1663 88.5809H40.1966C40.875 99.4353 45.2847 109.611 52.4079 117.074L37.4831 131.659C36.1263 130.642 34.4303 130.302 32.3951 130.302C30.6991 130.302 29.0031 130.981 27.6463 131.659L27.3071 130.642L24.2543 131.998L25.2719 134.034C23.9151 135.73 23.2366 137.765 23.2366 139.8C23.2366 142.514 24.2543 144.888 26.2895 146.584C28.3247 148.28 30.6991 149.298 33.0735 149.298C35.4479 149.298 38.1615 148.28 39.8575 146.245L40.1966 145.906L41.5535 146.584L42.9103 143.531L41.8926 143.192C42.2318 142.174 42.5711 140.818 42.5711 139.8C42.5711 137.765 41.8927 135.39 40.5359 134.034L55.4606 119.448C63.2622 126.571 73.7775 131.32 85.3103 131.32V152.011C82.9359 152.35 80.9007 153.029 79.5439 154.725C78.5263 155.743 77.8478 156.76 77.5087 158.117L76.1519 161.17L76.8303 161.509C76.8303 166.936 81.2399 171.006 86.3279 171.006C91.0767 171.006 95.1471 167.275 95.8255 162.866L96.5039 162.526L95.8255 161.17C95.8255 156.76 92.7727 153.368 88.7023 152.35V131.32C99.5567 130.642 109.393 125.893 116.856 118.77L131.442 133.694C129.067 137.086 129.067 141.496 131.442 144.549L129.746 145.227L131.102 148.28L134.155 146.923C135.851 147.941 137.547 148.619 139.243 148.619C141.957 148.619 144.331 147.602 146.027 145.566C149.419 141.835 149.758 136.069 146.366 132.338L146.706 131.32L143.653 129.963C142.296 129.285 140.6 128.946 139.243 128.946C137.208 128.946 135.512 129.624 133.816 130.642L119.23 115.717C126.354 107.915 130.424 97.7392 130.763 86.5456H151.454C151.794 88.5808 152.811 90.2768 154.168 91.6336C155.185 92.6512 156.882 93.6688 158.238 94.008L157.899 95.0256L160.952 96.3825L161.63 94.3471C164.005 94.0079 166.04 93.3296 167.736 91.6336C169.771 89.9376 170.789 87.5633 170.789 85.1889ZM14.7566 90.9551C13.739 92.3119 12.0431 92.6513 10.3471 92.9905C6.95508 92.9905 4.24153 90.2769 4.24153 86.8849C4.24153 83.4929 6.95508 80.44 10.3471 80.44C13.7391 80.44 16.4526 83.1536 16.4526 86.5456C16.7918 88.2416 16.1134 89.5983 14.7566 90.9551ZM67.3326 104.523C68.3503 109.272 69.7071 113.342 71.4031 117.074C73.0991 121.144 75.1342 124.197 77.5087 126.232C61.5662 122.84 49.0158 110.629 45.2846 94.6865C49.6942 99.4353 57.4958 102.827 67.3326 104.523ZM44.2671 86.2065C44.2671 82.1361 48.3375 77.7265 55.7999 74.3345C58.8527 72.9777 62.5839 71.6209 66.6543 70.9425C65.9759 75.6913 65.6367 80.7791 65.6367 85.8671C65.6367 90.9551 65.9759 96.0432 66.9935 100.792C53.4255 98.0784 44.2671 92.6513 44.2671 86.2065ZM85.9886 127.589C81.579 127.589 77.5087 123.518 74.1166 116.056C72.7598 113.003 71.403 109.272 70.7246 105.202C75.1342 105.88 79.8831 106.219 84.6319 106.219C84.9711 106.219 85.3103 106.219 85.6495 106.219C90.7375 106.219 95.8255 105.88 100.574 104.862C99.8959 108.933 98.5391 112.325 97.1823 115.717C94.4687 123.179 90.3982 127.589 85.9886 127.589ZM85.9886 102.827C80.5614 102.827 75.1343 102.488 70.3855 101.81C69.3679 97.0608 69.0286 91.6337 69.0286 86.2065C69.0286 80.7793 69.3679 75.3519 70.0463 70.6031C74.7951 69.5855 80.2223 69.2465 85.6495 69.2465C91.0767 69.2465 96.5039 69.5856 101.253 70.264C102.27 75.0128 102.61 80.4399 102.61 85.8671C102.61 91.2943 102.27 96.7217 101.592 101.47C96.5039 102.149 91.4158 102.827 85.9886 102.827ZM85.3103 44.1456C89.3807 44.1456 93.7903 48.2161 97.1823 55.6785C98.5391 58.7313 99.8959 62.4625 100.574 66.5329C95.8255 65.8545 90.7375 65.5151 85.6495 65.5151C80.5615 65.5151 75.4734 65.8544 70.7246 66.872C73.4382 53.6432 78.8655 44.1456 85.3103 44.1456ZM104.645 70.6031C108.715 71.2815 112.107 72.6383 115.499 73.9951C122.961 77.0479 127.371 81.4576 127.371 85.528C127.371 89.5984 123.301 94.008 115.838 97.4C112.786 98.7568 109.054 100.114 104.984 100.792C105.662 96.0432 106.002 90.9551 106.002 85.8671C106.002 80.4399 105.662 75.3519 104.645 70.6031ZM138.565 25.8289C140.261 25.8289 141.957 26.5073 142.974 27.5249C144.331 28.5425 144.67 30.2385 145.01 31.9345C145.01 33.6305 144.331 35.3264 143.314 36.344C142.296 37.7008 140.6 38.0399 138.904 38.3791C137.208 38.3791 135.851 37.7007 134.494 36.6831C133.138 35.6655 132.798 33.9696 132.459 32.2736C132.459 30.5776 133.137 28.8816 134.155 27.864C135.173 26.5072 136.869 25.8289 138.565 25.8289ZM126.354 76.7089C123.979 74.6737 120.926 72.6385 116.856 70.9425C113.125 69.2465 108.715 68.2287 103.966 67.2111C102.949 62.4623 101.592 58.3921 99.8959 54.6609C98.1999 50.5905 96.1647 47.5375 93.7903 45.1631C101.592 46.8591 108.715 50.5905 114.482 56.3569C120.587 61.7841 124.658 68.9073 126.354 76.7089ZM78.8655 10.5649C78.8655 8.86891 79.5439 7.17274 80.5615 6.15514C81.5791 5.13754 83.2751 4.45923 84.9711 4.12003C86.6671 4.12003 88.0238 4.79843 89.3807 5.81603C90.7374 6.83363 91.0767 8.52959 91.4159 10.2256C91.4159 13.6176 88.7023 16.6705 85.3103 16.6705C83.6143 16.6705 81.9183 15.9921 80.9007 14.9745C79.5438 13.9569 78.8655 12.2609 78.8655 10.5649ZM76.4911 45.1631C72.0815 49.9119 68.6895 57.7137 66.9935 67.5505C62.2447 68.5681 58.1743 69.9249 54.4431 71.6209C50.3727 73.3169 47.3198 75.3521 45.2846 77.7265C46.9806 69.9249 50.7119 62.8015 56.4783 57.0351C61.5663 50.9295 68.6895 46.8591 76.4911 45.1631ZM32.0559 39.3969C30.6991 39.3969 28.6639 38.7185 27.6463 37.7009C26.2895 36.6833 25.9503 34.9871 25.6111 33.2911C25.6111 31.5951 26.2895 29.8992 27.3071 28.8816C28.3247 27.5248 30.0206 27.1857 31.7166 26.8465C33.4126 26.8465 34.7695 27.5249 36.1263 28.5425C37.4831 29.5601 37.8223 31.256 38.1615 32.952C38.1615 34.648 37.4831 36.344 36.4655 37.3616C35.4479 38.7184 33.7519 39.3969 32.0559 39.3969ZM28.6639 144.21C27.3071 143.192 26.9678 141.496 26.6286 139.8C26.6286 138.104 27.307 136.408 28.3246 135.39C29.3422 134.034 31.0383 133.694 32.7343 133.355C34.4303 133.355 35.7871 134.034 37.1439 135.051C38.5007 136.069 38.8399 137.765 39.1791 139.461C39.1791 141.157 38.5007 142.853 37.4831 143.87C35.1087 146.584 31.0383 146.584 28.6639 144.21ZM92.7727 161.17C92.7727 164.562 90.0591 167.614 86.6671 167.614C83.2751 167.614 80.5615 164.901 80.5615 161.509C80.5615 159.813 81.2399 158.117 82.2575 157.099C83.2751 155.742 84.9711 155.403 86.6671 155.064C90.0591 154.725 92.7727 157.778 92.7727 161.17ZM95.1471 126.571C97.1823 124.197 99.2175 121.144 100.914 117.074C102.61 113.342 103.627 108.933 104.645 104.184C109.393 103.166 113.464 101.81 117.534 100.114C121.605 98.4176 124.657 96.3824 126.693 94.008C124.997 101.81 121.265 108.933 115.499 114.699C109.733 120.805 102.609 124.536 95.1471 126.571ZM139.582 132.338C141.278 132.338 142.974 133.016 143.992 134.034C146.366 136.408 146.366 140.479 143.992 142.853C142.974 144.21 141.278 144.549 139.582 144.888C137.886 144.888 136.19 144.21 135.173 143.192C133.816 142.174 133.477 140.478 133.138 138.782C133.138 137.086 133.816 135.391 134.834 134.373C136.19 133.016 137.886 132.338 139.582 132.338ZM165.701 89.5985C164.683 90.9553 162.987 91.2944 161.291 91.6336C159.595 91.6336 157.899 90.9552 156.882 89.9376C155.525 88.92 155.186 87.224 154.846 85.528C154.507 83.832 155.525 82.1361 156.542 81.1185C157.56 79.7617 159.256 79.4223 160.952 79.0831C164.344 79.0831 167.058 81.7969 167.058 85.1889C167.397 86.8849 166.718 88.2417 165.701 89.5985Z" fill="#00FF66"/>
<path d="M16.9661 105.157L13.8464 106.489L15.1778 109.608L18.2974 108.277L16.9661 105.157Z" fill="#00FF66"/>
<path d="M14.1782 98.7514L11.0586 100.083L12.39 103.202L15.5096 101.871L14.1782 98.7514Z" fill="#00FF66"/>
<path d="M24.7532 123.883L21.6335 125.214L22.9649 128.334L26.0845 127.002L24.7532 123.883Z" fill="#00FF66"/>
<path d="M19.6217 111.251L16.5021 112.582L17.8334 115.702L20.9531 114.371L19.6217 111.251Z" fill="#00FF66"/>
<path d="M22.3839 118.044L19.2616 119.37L20.5875 122.492L23.7099 121.166L22.3839 118.044Z" fill="#00FF66"/>
<path d="M53.3218 20.1836L50.1882 21.4821L51.4867 24.6156L54.6202 23.3171L53.3218 20.1836Z" fill="#00FF66"/>
<path d="M47.1203 22.5123L43.9868 23.8108L45.2853 26.9443L48.4188 25.6459L47.1203 22.5123Z" fill="#00FF66"/>
<path d="M59.7085 17.411L56.575 18.7095L57.8734 21.843L61.0069 20.5445L59.7085 17.411Z" fill="#00FF66"/>
<path d="M72.2981 12.3102L69.1646 13.6086L70.463 16.7422L73.5965 15.4437L72.2981 12.3102Z" fill="#00FF66"/>
<path d="M65.7816 14.7683L62.6481 16.0668L63.9465 19.2003L67.0801 17.9018L65.7816 14.7683Z" fill="#00FF66"/>
<path d="M117.738 18.5676L116.44 21.7012L119.573 22.9996L120.872 19.8661L117.738 18.5676Z" fill="#00FF66"/>
<path d="M124.054 21.3565L122.756 24.49L125.889 25.7884L127.188 22.6549L124.054 21.3565Z" fill="#00FF66"/>
<path d="M105.296 13.4286L103.997 16.5621L107.131 17.8606L108.429 14.7271L105.296 13.4286Z" fill="#00FF66"/>
<path d="M98.8507 10.9476L97.5522 14.0812L100.686 15.3796L101.984 12.2461L98.8507 10.9476Z" fill="#00FF66"/>
<path d="M111.609 16.2196L110.31 19.3531L113.444 20.6516L114.742 17.5181L111.609 16.2196Z" fill="#00FF66"/>
<path d="M45.9528 144.674L44.6543 147.807L47.7878 149.106L49.0863 145.972L45.9528 144.674Z" fill="#00FF66"/>
<path d="M64.7113 152.602L63.4128 155.735L66.5464 157.034L67.8448 153.9L64.7113 152.602Z" fill="#00FF66"/>
<path d="M52.2689 147.463L50.9705 150.596L54.104 151.895L55.4024 148.761L52.2689 147.463Z" fill="#00FF66"/>
<path d="M71.156 155.083L69.8575 158.216L72.9911 159.515L74.2895 156.381L71.156 155.083Z" fill="#00FF66"/>
<path d="M58.3983 149.811L57.0999 152.944L60.2334 154.243L61.5318 151.109L58.3983 149.811Z" fill="#00FF66"/>
<path d="M107.848 153.799L104.714 155.097L106.013 158.231L109.146 156.932L107.848 153.799Z" fill="#00FF66"/>
<path d="M101.775 156.44L98.641 157.739L99.9394 160.872L103.073 159.574L101.775 156.44Z" fill="#00FF66"/>
<path d="M113.921 151.156L110.788 152.455L112.086 155.588L115.22 154.29L113.921 151.156Z" fill="#00FF66"/>
<path d="M120.438 148.697L117.304 149.995L118.603 153.129L121.736 151.831L120.438 148.697Z" fill="#00FF66"/>
<path d="M126.509 146.055L123.376 147.353L124.674 150.487L127.808 149.188L126.509 146.055Z" fill="#00FF66"/>
<path d="M19.528 51.1663L18.2625 54.3134L21.4095 55.5789L22.6751 52.4318L19.528 51.1663Z" fill="#00FF66"/>
<path d="M11.9578 70.2638L10.6923 73.4109L13.8394 74.6764L15.1049 71.5293L11.9578 70.2638Z" fill="#00FF66"/>
<path d="M14.4172 63.7504L13.1516 66.8975L16.2987 68.163L17.5643 65.0159L14.4172 63.7504Z" fill="#00FF66"/>
<path d="M17.068 57.678L15.8025 60.8251L18.9496 62.0906L20.2151 58.9435L17.068 57.678Z" fill="#00FF66"/>
<path d="M22.1773 45.0907L20.9117 48.2378L24.0588 49.5033L25.3244 46.3563L22.1773 45.0907Z" fill="#00FF66"/>
<path d="M154.157 104.732L152.891 107.879L156.038 109.144L157.304 105.997L154.157 104.732Z" fill="#00FF66"/>
<path d="M151.698 111.245L150.432 114.392L153.579 115.658L154.845 112.51L151.698 111.245Z" fill="#00FF66"/>
<path d="M156.807 98.6575L155.542 101.805L158.689 103.07L159.954 99.923L156.807 98.6575Z" fill="#00FF66"/>
<path d="M149.047 117.317L147.781 120.464L150.928 121.73L152.194 118.583L149.047 117.317Z" fill="#00FF66"/>
<path d="M146.587 123.829L145.321 126.976L148.468 128.242L149.734 125.095L146.587 123.829Z" fill="#00FF66"/>
<path d="M156.045 60.7725L152.925 62.1039L154.256 65.2235L157.376 63.8921L156.045 60.7725Z" fill="#00FF66"/>
<path d="M158.997 67.1078L155.875 68.4337L157.201 71.5561L160.323 70.2301L158.997 67.1078Z" fill="#00FF66"/>
<path d="M153.257 54.3661L150.137 55.6975L151.468 58.8171L154.588 57.4858L153.257 54.3661Z" fill="#00FF66"/>
<path d="M148.125 41.7346L145.006 43.0659L146.337 46.1855L149.457 44.8542L148.125 41.7346Z" fill="#00FF66"/>
<path d="M150.897 48.5137L147.774 49.8396L149.1 52.9619L152.223 51.636L150.897 48.5137Z" fill="#00FF66"/>
</svg>
