<svg width="174" height="171" viewBox="0 0 174 171" fill="none" xmlns="http://www.w3.org/2000/svg">
<path d="M2.03522 0.358398V44.4544H173.331V0.358398H2.03522ZM169.939 40.7232H5.42722V3.41118H169.939V40.7232Z" fill="#00FF66"/>
<path d="M157.05 13.9264H55.968V33.2607H157.05V13.9264ZM153.658 29.8687H59.36V17.3184H153.658V29.8687Z" fill="#00FF66"/>
<path d="M28.4928 33.2607C33.92 33.2607 38.3296 28.8511 38.3296 23.4239C38.3296 17.9967 33.92 13.5872 28.4928 13.5872C23.0656 13.5872 18.656 17.9967 18.656 23.4239C18.656 28.8511 23.0656 33.2607 28.4928 33.2607ZM28.4928 16.9792C32.224 16.9792 34.9376 20.0319 34.9376 23.4239C34.9376 26.8159 31.8848 29.8687 28.4928 29.8687C24.7616 29.8687 22.048 26.8159 22.048 23.4239C22.048 20.0319 24.7616 16.9792 28.4928 16.9792Z" fill="#00FF66"/>
<path d="M1.01763 155.034H84.8V166.906H1.69602V170.298H171.296V166.906H88.1921V155.034H171.974V110.938H0.678436V155.034H1.01763ZM4.40961 114.669H168.922V151.981H4.40961V114.669Z" fill="#00FF66"/>
<path d="M54.9504 144.179H156.032V124.845H54.9504V144.179ZM58.3424 128.237H152.64V140.787H58.3424V128.237Z" fill="#00FF66"/>
<path d="M27.4752 124.506C22.048 124.506 17.6384 128.915 17.6384 134.342C17.6384 139.77 22.048 144.179 27.4752 144.179C32.9024 144.179 37.312 139.77 37.312 134.342C37.312 128.915 32.9024 124.506 27.4752 124.506ZM27.4752 140.787C23.744 140.787 21.0304 137.734 21.0304 134.342C21.0304 130.95 24.0832 127.898 27.4752 127.898C30.8672 127.898 33.92 130.95 33.92 134.342C33.92 137.734 30.8672 140.787 27.4752 140.787Z" fill="#00FF66"/>
<path d="M1.01767 99.7439H172.314V55.6479H1.01767V99.7439ZM4.40964 59.0399H168.922V96.3519H4.40964V59.0399Z" fill="#00FF66"/>
<path d="M54.9504 88.5504H156.032V69.2159H54.9504V88.5504ZM58.3424 72.9472H152.64V85.4976H58.3424V72.9472Z" fill="#00FF66"/>
<path d="M27.4752 69.2159C22.048 69.2159 17.6384 73.6255 17.6384 79.0527C17.6384 84.4799 22.048 88.8896 27.4752 88.8896C32.9024 88.8896 37.312 84.4799 37.312 79.0527C37.312 73.6255 32.9024 69.2159 27.4752 69.2159ZM27.4752 85.4976C23.744 85.4976 21.0304 82.4447 21.0304 79.0527C21.0304 75.3215 24.0832 72.6079 27.4752 72.6079C30.8672 72.6079 33.92 75.6607 33.92 79.0527C33.92 82.4447 30.8672 85.4976 27.4752 85.4976Z" fill="#00FF66"/>
</svg>
